<?xml version="1.0" standalone="no"?>
<!DOCTYPE svg PUBLIC "-//W3C//DTD SVG 20010904//EN"
 "http://www.w3.org/TR/2001/REC-SVG-20010904/DTD/svg10.dtd">
<svg version="1.0" xmlns="http://www.w3.org/2000/svg"
 width="1024.000000pt" height="1024.000000pt" viewBox="0 0 1024.000000 1024.000000"
 preserveAspectRatio="xMidYMid meet">

<g transform="translate(0.000000,1024.000000) scale(0.100000,-0.100000)"
fill="#000000" stroke="none">
<path d="M0 5120 l0 -5120 5120 0 5120 0 0 5120 0 5120 -5120 0 -5120 0 0
-5120z m2272 1516 c179 -123 474 -245 713 -294 72 -15 101 -27 86 -36 -6 -4
-17 -3 -24 2 -14 12 -66 11 -68 0 -1 -5 -2 -14 -3 -20 0 -7 -11 -17 -23 -23
-24 -10 -32 -35 -11 -35 6 0 9 -3 5 -6 -3 -3 -32 -1 -64 5 -200 39 -448 134
-617 236 l-59 35 -76 -44 c-220 -130 -537 -232 -831 -269 l-105 -13 -3 -104
c-11 -405 145 -944 367 -1269 57 -84 58 -100 4 -116 -23 -7 -45 -10 -48 -7 -3
3 -5 -3 -5 -12 0 -12 -5 -16 -15 -12 -10 3 -15 -1 -15 -11 0 -25 -43 19 -95
97 -151 228 -268 557 -320 900 -18 120 -31 503 -21 601 l7 65 132 13 c235 22
485 86 692 177 97 44 300 157 311 175 9 15 21 10 86 -35z m-147 -377 c15 -38
26 -71 24 -73 -18 -11 -666 -216 -685 -216 -10 0 -70 129 -62 134 2 2 58 17
125 34 164 43 403 123 483 161 36 17 70 31 76 31 6 0 23 -32 39 -71z m1473 9
c-6 -18 -52 -85 -101 -148 -113 -146 -298 -383 -402 -514 -44 -56 -101 -128
-126 -161 -25 -33 -130 -168 -233 -300 -104 -132 -207 -265 -229 -295 -71 -94
-227 -289 -235 -293 -4 -3 -106 87 -227 200 -121 112 -289 268 -372 346 -84
78 -153 144 -153 147 0 6 291 140 303 140 4 0 79 -55 167 -122 142 -108 162
-120 182 -111 13 6 77 55 144 109 66 55 163 133 214 174 51 41 139 113 195
160 57 47 118 97 136 111 19 15 192 153 384 308 193 154 353 281 357 281 4 0
2 -15 -4 -32z m-898 -83 c6 -7 39 -100 74 -206 l64 -194 -24 -24 c-13 -14 -26
-22 -29 -20 -3 3 -30 77 -61 165 -30 87 -62 167 -71 176 -34 38 -61 30 -763
-213 -146 -50 -287 -98 -313 -107 -34 -11 -58 -29 -80 -55 -28 -37 -30 -42
-18 -71 7 -17 31 -84 53 -149 44 -126 43 -136 -8 -137 -22 0 -34 25 -94 190
-17 47 -40 109 -52 138 l-22 52 20 27 c16 21 52 37 160 74 76 26 312 106 524
179 606 207 612 209 640 175z m-162 -167 c7 -7 34 -20 59 -28 44 -15 47 -19
68 -80 13 -36 34 -98 48 -137 l26 -73 -57 -46 c-31 -26 -70 -53 -87 -60 -16
-7 -36 -22 -44 -33 -8 -11 -19 -18 -23 -15 -5 3 -14 1 -21 -4 -7 -6 -23 -12
-36 -14 -14 -1 -36 -13 -50 -26 -13 -12 -26 -21 -28 -19 -2 2 2 35 8 73 14 82
5 125 -41 197 -41 65 -108 97 -203 97 -48 0 -79 -6 -106 -20 -87 -44 -150
-163 -137 -255 9 -58 56 -128 112 -168 l46 -32 -36 -9 c-33 -7 -43 -4 -123 48
-47 31 -89 56 -93 56 -4 0 -48 -20 -96 -44 -49 -24 -92 -41 -95 -38 -4 4 -24
52 -44 107 -28 76 -34 103 -26 115 24 33 51 90 49 102 -2 7 52 31 137 61 301
106 751 257 766 257 8 0 21 -6 27 -12z m1738 -135 c-3 -21 -6 -59 -6 -85 l0
-48 -122 0 c-68 0 -128 -4 -134 -8 -6 -4 -14 -55 -18 -117 -12 -204 -36 -560
-42 -622 l-6 -63 -108 0 -108 0 4 38 c10 83 52 757 48 764 -3 5 -65 8 -137 8
l-132 0 7 83 c3 45 7 83 7 85 1 1 170 2 377 2 l377 0 -7 -37z m2750 15 c-3
-13 -6 -43 -6 -69 0 -42 -8 -56 -125 -215 -69 -93 -178 -238 -242 -323 -65
-85 -119 -158 -121 -163 -2 -4 96 -8 218 -8 l221 0 -7 -72 c-4 -40 -7 -79 -7
-85 0 -14 -66 -16 -484 -17 l-223 -1 0 61 0 62 208 278 c265 355 292 392 292
399 0 3 -97 5 -216 5 l-217 0 7 53 c3 28 6 67 6 85 l0 32 351 0 351 0 -6 -22z
m905 5 c15 -9 35 -34 44 -55 13 -33 13 -43 1 -72 -30 -71 -107 -97 -173 -56
-43 26 -56 54 -50 104 11 82 103 123 178 79z m-1845 -105 c-3 -18 -8 -68 -11
-110 l-7 -77 88 -3 88 -3 -3 -70 c-1 -38 -5 -73 -7 -77 -3 -4 -42 -8 -88 -8
l-83 0 -11 -132 c-16 -175 -15 -185 8 -208 24 -24 67 -26 117 -5 20 8 37 14
39 13 2 -3 -12 -101 -21 -134 -13 -54 -192 -76 -274 -35 -82 42 -92 85 -77
329 l11 172 -30 0 c-52 0 -58 10 -51 83 8 69 15 76 72 77 20 0 23 7 30 81 l9
82 95 27 c52 15 99 28 103 29 4 0 6 -14 3 -31z m-3956 -33 c7 -8 19 -15 27
-15 8 0 23 -5 33 -10 27 -14 14 -40 -20 -40 -30 0 -59 -26 -44 -39 5 -4 35
-15 66 -25 80 -24 100 -66 56 -122 -13 -15 -21 -36 -20 -46 2 -12 -3 -18 -17
-18 -12 0 -21 4 -21 9 0 6 -21 11 -47 13 -44 3 -48 5 -48 28 0 21 4 25 28 22
69 -7 67 49 -2 68 -68 18 -90 73 -50 124 11 15 19 33 16 40 -11 28 22 36 43
11z m2413 -180 c-1 -16 -4 -60 -8 -97 l-7 -68 -44 0 c-57 0 -103 -20 -135 -57
-24 -29 -26 -41 -39 -227 l-13 -196 -98 0 -99 0 0 58 c0 31 7 140 15 242 8
102 15 217 15 255 1 118 -1 116 92 114 48 -1 81 -6 83 -13 2 -6 6 -27 9 -47
l6 -35 45 42 c48 47 89 64 145 61 32 -2 35 -4 33 -32z m1127 16 c36 -9 64 -20
64 -24 -1 -4 -7 -37 -14 -72 -7 -36 -15 -65 -19 -65 -3 1 -33 7 -66 15 -105
26 -177 13 -183 -31 -4 -29 22 -46 120 -78 110 -34 151 -69 166 -141 25 -120
-26 -210 -148 -259 -65 -26 -213 -25 -302 3 l-67 22 6 32 c14 72 31 122 39
120 5 -2 34 -12 64 -23 30 -10 81 -19 113 -20 49 0 62 4 83 25 24 24 25 28 11
48 -9 14 -45 32 -103 52 -144 48 -197 115 -180 228 13 82 76 149 164 173 66
18 175 16 252 -5z m1793 10 c48 -11 98 -45 125 -85 34 -50 42 -110 32 -231 -6
-61 -13 -163 -16 -227 l-7 -118 -84 0 -83 0 0 35 c0 40 -9 44 -36 14 -48 -53
-150 -78 -233 -57 -55 14 -118 70 -131 116 -17 63 -12 133 13 174 48 79 125
113 292 125 l100 8 -2 30 c-1 18 -13 39 -28 53 -34 29 -131 30 -210 3 l-55
-20 -30 60 -30 59 32 20 c18 11 35 20 38 20 3 1 28 7 55 15 57 16 201 19 258
6z m1076 -11 c21 -10 48 -32 59 -47 l20 -28 29 23 c126 102 304 96 368 -12 35
-60 39 -125 21 -351 -9 -110 -16 -208 -16 -217 0 -16 -11 -18 -95 -18 l-95 0
0 33 c0 17 5 84 10 147 5 63 10 153 11 199 2 80 1 85 -25 108 -19 16 -40 23
-68 23 -33 0 -47 -6 -77 -37 l-37 -38 -13 -190 c-7 -104 -15 -202 -18 -217
l-5 -28 -96 0 -95 0 7 73 c17 187 26 355 20 379 -8 37 -40 58 -87 58 -30 0
-46 -8 -78 -38 l-40 -37 -14 -210 c-8 -116 -15 -213 -15 -217 0 -5 -43 -8 -95
-8 -92 0 -95 1 -95 23 0 23 26 441 36 563 l5 70 37 3 c20 1 58 -1 85 -4 44 -6
47 -9 47 -36 0 -35 3 -36 44 -4 51 39 97 54 164 55 43 0 75 -6 101 -20z
m-3749 -22 c0 -18 -5 -125 -12 -237 l-12 -204 28 -23 c31 -28 53 -30 101 -10
52 22 75 67 76 151 0 39 6 133 12 210 l12 140 99 3 99 3 -6 -118 c-4 -65 -14
-215 -22 -333 -8 -118 -15 -216 -15 -217 0 -2 -38 -3 -84 -3 -88 0 -96 4 -96
51 0 16 -6 14 -45 -15 -49 -38 -85 -49 -161 -49 -104 0 -185 69 -200 171 -7
45 21 486 32 503 3 5 48 9 100 9 l94 0 0 -32z m3157 15 c3 -8 -5 -156 -17
-329 l-23 -314 -95 0 -94 0 6 68 c3 37 8 112 11 167 11 199 26 400 30 413 7
20 175 15 182 -5z m-4866 -416 c-10 -9 -11 -8 -5 6 3 10 9 15 12 12 3 -3 0
-11 -7 -18z m-15 -54 c-2 -16 -9 -41 -15 -57 -13 -32 -58 -92 -48 -63 4 10 7
24 7 30 0 7 10 28 22 47 22 34 24 40 27 60 0 6 3 10 6 10 2 0 3 -12 1 -27z
m-1421 -444 c-3 -4 -14 -7 -24 -6 -15 1 -17 5 -11 18 5 9 6 20 2 25 -4 5 3 0
15 -10 13 -10 20 -22 18 -27z m-82 -15 c11 -11 -3 -24 -18 -18 -8 4 -12 10 -9
15 6 11 18 12 27 3z m4809 -49 c25 -33 51 -32 76 3 17 22 23 25 34 14 10 -10
10 -18 -2 -40 -13 -23 -23 -27 -67 -30 -46 -3 -54 0 -69 22 -15 24 -14 56 2
56 3 0 15 -11 26 -25z m-2597 -21 c6 -16 27 -73 45 -126 l33 -98 27 78 c65
183 62 177 102 180 l36 3 6 -73 c3 -40 8 -126 11 -191 l7 -118 -29 3 -28 3 -6
105 c-4 58 -7 123 -8 145 -2 36 -6 29 -47 -82 -43 -115 -48 -123 -73 -123 -24
0 -29 8 -66 110 l-40 111 -6 -58 c-4 -32 -7 -93 -8 -135 l-1 -78 -31 0 -31 0
6 83 c3 45 9 128 12 184 6 94 8 102 28 105 38 7 48 2 61 -28z m3343 -21 c3
-52 4 -53 33 -53 67 0 113 -91 89 -178 -12 -46 -59 -92 -95 -92 -25 0 -35 -22
-35 -78 0 -29 -3 -33 -22 -30 -20 3 -23 9 -24 53 -1 48 -2 50 -35 56 -19 4
-46 21 -61 38 -23 26 -28 40 -28 87 0 84 30 130 93 143 25 5 32 12 33 31 1 14
2 38 3 53 1 23 5 28 24 25 19 -3 22 -10 25 -55z m-2863 -57 c18 -8 38 -23 44
-34 6 -12 11 -68 11 -126 l0 -106 -25 0 c-17 0 -25 6 -25 17 0 14 -2 15 -17 1
-47 -40 -136 -24 -149 28 -16 62 38 114 119 114 33 0 37 3 37 25 0 33 -32 49
-85 41 -34 -6 -44 -4 -49 10 -8 21 -9 20 34 32 49 14 66 14 105 -2z m311 -8
c12 -5 28 -21 35 -35 19 -36 17 -131 -5 -171 -19 -37 -75 -66 -107 -57 -10 3
-28 8 -39 11 -18 5 -20 1 -20 -55 0 -58 -1 -61 -25 -61 l-25 0 0 190 c0 184 1
190 20 190 11 0 23 -7 27 -15 5 -14 8 -14 22 -1 30 26 70 28 117 4z m508 8
c45 -19 66 -52 66 -103 l0 -43 -85 0 c-96 0 -106 -10 -59 -57 23 -23 31 -25
80 -19 49 6 54 4 54 -13 0 -23 -25 -33 -84 -33 -88 0 -130 47 -128 144 1 64
28 109 72 125 45 15 45 15 84 -1z m1100 0 c45 -19 66 -52 66 -103 l0 -43 -85
0 c-96 0 -106 -10 -59 -57 23 -23 31 -25 79 -19 42 5 54 3 59 -9 14 -38 -117
-55 -168 -21 -51 33 -71 121 -42 189 17 41 56 68 109 76 4 0 23 -5 41 -13z
m589 -3 c10 -3 17 -12 15 -21 -3 -13 -13 -16 -44 -14 -58 5 -85 -20 -91 -85
-5 -46 -2 -54 22 -79 23 -23 32 -26 70 -21 34 5 44 3 49 -10 8 -19 -6 -29 -49
-37 -43 -8 -104 13 -127 44 -41 56 -35 151 12 199 39 39 71 44 143 24z m-2042
-23 c1 -16 3 -34 4 -40 1 -5 3 -17 4 -25 2 -24 24 -7 66 48 26 33 43 47 60 47
14 0 25 -4 25 -8 0 -5 -18 -33 -40 -62 -22 -29 -40 -57 -40 -60 0 -4 9 -15 20
-25 11 -10 34 -40 50 -67 l30 -48 -29 0 c-22 0 -35 8 -52 33 -32 46 -71 87
-83 87 -7 0 -11 -24 -11 -57 0 -55 -1 -58 -25 -58 l-25 0 -3 133 -3 132 26 0
c21 0 25 -5 26 -30z m679 11 c0 -16 -8 -20 -42 -23 l-43 -3 -3 -112 c-3 -113
-3 -113 -27 -113 l-25 0 0 115 0 115 -45 0 c-38 0 -45 3 -45 20 0 19 7 20 115
20 107 0 115 -1 115 -19z m254 3 c13 -12 16 -39 16 -135 l0 -119 -30 0 -29 0
-3 113 -3 112 -52 1 -53 1 0 -113 c0 -114 0 -114 -24 -114 -13 0 -27 7 -30 16
-7 19 -8 217 -1 236 9 22 188 24 209 2z m301 -16 c3 -18 5 -78 3 -133 l-3
-100 -27 -3 -28 -3 0 116 0 116 -37 -3 -38 -3 -6 -70 c-9 -115 -30 -155 -81
-155 -21 0 -28 5 -28 19 0 10 9 21 19 24 22 5 41 79 41 161 0 29 3 56 7 59 3
4 44 7 89 7 l83 0 6 -32z m395 -60 l0 -91 61 91 c48 72 66 92 84 92 22 0 24
-5 30 -72 4 -40 5 -100 3 -133 -3 -57 -4 -60 -30 -63 l-28 -3 0 93 0 93 -61
-92 c-49 -74 -67 -93 -85 -93 l-24 0 0 135 0 135 25 0 c25 0 25 -1 25 -92z
m1002 2 l3 -90 60 90 c51 79 63 91 85 88 l25 -3 0 -130 0 -130 -27 -3 -28 -3
0 93 0 93 -61 -92 c-49 -74 -67 -93 -85 -93 l-24 0 0 135 0 135 25 0 c24 0 24
-2 27 -90z m300 38 l3 -53 55 0 c37 0 55 4 56 13 1 6 2 30 3 52 1 36 4 40 26
40 l25 0 0 -135 0 -135 -25 0 c-22 0 -24 4 -27 58 l-3 57 -57 3 -58 3 0 -61
c0 -57 -1 -60 -25 -60 l-25 0 0 135 0 135 24 0 c23 0 25 -4 28 -52z m413 27
c24 -23 25 -31 25 -135 l0 -110 -25 0 c-14 0 -25 4 -25 9 0 5 -17 3 -37 -5
-87 -30 -156 32 -118 106 15 30 55 47 120 52 24 2 29 7 27 23 -7 39 -23 48
-78 41 -40 -5 -53 -3 -58 9 -8 22 23 34 87 35 48 0 62 -4 82 -25z m149 3 c3
-13 6 -38 6 -55 l0 -33 55 0 55 0 0 55 c0 52 1 55 25 55 l25 0 0 -135 0 -135
-25 0 c-24 0 -25 3 -25 60 l0 60 -55 0 -54 0 -3 -57 c-3 -55 -4 -58 -30 -61
l-28 -3 0 135 0 136 24 0 c16 0 26 -7 30 -22z m415 13 c8 -5 11 -16 8 -24 -4
-11 -16 -14 -44 -10 -29 4 -44 0 -63 -15 -21 -17 -25 -29 -25 -77 0 -48 4 -60
25 -77 20 -16 34 -19 67 -14 24 3 43 4 43 2 0 -3 3 -11 6 -19 11 -30 -110 -40
-151 -13 -73 48 -70 201 4 241 29 16 108 19 130 6z m263 -20 c28 -25 32 -35
36 -92 3 -55 0 -69 -20 -99 -32 -47 -86 -66 -141 -48 -52 17 -79 54 -85 117
-9 98 35 151 124 151 45 0 59 -5 86 -29z m271 18 c29 -16 37 -28 37 -61 0 -17
-8 -33 -19 -40 -18 -11 -18 -12 5 -31 34 -26 33 -79 -2 -106 -22 -17 -41 -21
-110 -21 l-84 0 0 129 c0 94 3 131 13 134 24 10 139 7 160 -4z m-6638 -69 c-3
-5 -12 -10 -18 -10 -7 0 -6 4 3 10 19 12 23 12 15 0z"/>
<path d="M7285 5229 c-47 -13 -75 -45 -75 -83 0 -46 30 -71 85 -70 73 2 118
44 131 122 l7 42 -59 -1 c-33 0 -73 -5 -89 -10z"/>
<path d="M7023 4456 c-24 -21 -28 -32 -28 -76 0 -55 18 -80 58 -80 17 0 18 8
16 86 -2 47 -6 87 -10 90 -4 2 -20 -7 -36 -20z"/>
<path d="M7120 4385 c0 -59 4 -95 10 -95 6 0 22 11 35 25 47 46 24 164 -32
165 -10 0 -13 -26 -13 -95z"/>
<path d="M4165 4354 c-36 -36 3 -75 54 -54 25 10 31 18 31 41 0 26 -3 29 -34
29 -19 0 -42 -7 -51 -16z"/>
<path d="M4452 4464 c-19 -13 -22 -24 -22 -77 0 -72 5 -83 43 -92 61 -16 100
51 77 134 -14 53 -53 67 -98 35z"/>
<path d="M4998 4468 c-9 -7 -19 -23 -23 -35 -6 -22 -4 -23 55 -23 l62 0 -7 27
c-3 15 -12 31 -18 35 -18 12 -51 9 -69 -4z"/>
<path d="M6092 4468 c-5 -7 -13 -23 -16 -35 -7 -22 -5 -23 53 -23 64 0 67 3
51 44 -8 21 -16 26 -44 26 -18 0 -38 -6 -44 -12z"/>
<path d="M7940 4355 c-29 -35 10 -76 57 -59 22 7 29 17 31 42 3 31 2 32 -36
32 -22 0 -45 -6 -52 -15z"/>
<path d="M8756 4458 c-25 -35 -21 -122 6 -148 25 -23 56 -26 84 -6 15 12 19
27 19 81 0 54 -4 69 -19 81 -30 21 -72 18 -90 -8z"/>
<path d="M9040 4446 c0 -35 1 -36 38 -36 89 0 96 62 8 68 l-46 3 0 -35z"/>
<path d="M9040 4330 l0 -40 44 0 c45 0 76 18 76 45 0 21 -33 35 -79 35 l-41 0
0 -40z"/>
</g>
</svg>
